<mxfile host="app.diagrams.net" agent="Mozilla/5.0 (Windows NT 10.0; Win64; x64) AppleWebKit/537.36 (KHTML, like Gecko) Chrome/127.0.0.0 Safari/537.36" version="24.7.7">
  <diagram name="Page-1" id="u_xwP6d0q5Toz4vsdYve">
    <mxGraphModel>
      <root>
        <mxCell id="0" />
        <mxCell id="1" parent="0" />
        <mxCell id="2" value="ExtractDataEHR" style="shape=umlLifeline;perimeter=lifelinePerimeter;whiteSpace=wrap;container=1;dropTarget=0;collapsible=0;recursiveResize=0;outlineConnect=0;portConstraint=eastwest;newEdgeStyle={&quot;edgeStyle&quot;:&quot;elbowEdgeStyle&quot;,&quot;elbow&quot;:&quot;vertical&quot;,&quot;curved&quot;:0,&quot;rounded&quot;:0};size=30;" vertex="1" parent="1">
          <mxGeometry x="150" y="110" width="150" height="300" as="geometry" />
        </mxCell>
        <mxCell id="3" value="" style="shape=image;imageAspect=0;aspect=fixed;image=https://cdn1.iconfinder.com/data/icons/hawcons/32/699721-icon-5-neutral-face-128.png;imageBackground=default;" vertex="1" parent="2">
          <mxGeometry x="60" y="NaN" width="30" height="30" as="geometry" />
        </mxCell>
        <mxCell id="4" value="Extract" style="whiteSpace=wrap;strokeWidth=2;" vertex="1" parent="1">
          <mxGeometry x="150" y="70" width="150" height="30" as="geometry" />
        </mxCell>
        <mxCell id="5" value="CleanData" style="shape=umlLifeline;perimeter=lifelinePerimeter;whiteSpace=wrap;container=1;dropTarget=0;collapsible=0;recursiveResize=0;outlineConnect=0;portConstraint=eastwest;newEdgeStyle={&quot;edgeStyle&quot;:&quot;elbowEdgeStyle&quot;,&quot;elbow&quot;:&quot;vertical&quot;,&quot;curved&quot;:0,&quot;rounded&quot;:0};size=30;" vertex="1" parent="1">
          <mxGeometry x="350" y="110" width="150" height="300" as="geometry" />
        </mxCell>
        <mxCell id="6" value="" style="shape=image;imageAspect=0;aspect=fixed;image=https://cdn1.iconfinder.com/data/icons/hawcons/32/699721-icon-5-neutral-face-128.png;imageBackground=default;" vertex="1" parent="5">
          <mxGeometry x="60" y="NaN" width="30" height="30" as="geometry" />
        </mxCell>
        <mxCell id="7" value="Mapping" style="shape=umlLifeline;perimeter=lifelinePerimeter;whiteSpace=wrap;container=1;dropTarget=0;collapsible=0;recursiveResize=0;outlineConnect=0;portConstraint=eastwest;newEdgeStyle={&quot;edgeStyle&quot;:&quot;elbowEdgeStyle&quot;,&quot;elbow&quot;:&quot;vertical&quot;,&quot;curved&quot;:0,&quot;rounded&quot;:0};size=30;" vertex="1" parent="1">
          <mxGeometry x="550" y="110" width="150" height="300" as="geometry" />
        </mxCell>
        <mxCell id="8" value="" style="shape=image;imageAspect=0;aspect=fixed;image=https://cdn1.iconfinder.com/data/icons/hawcons/32/699721-icon-5-neutral-face-128.png;imageBackground=default;" vertex="1" parent="7">
          <mxGeometry x="60" y="NaN" width="30" height="30" as="geometry" />
        </mxCell>
        <mxCell id="9" value="Transform" style="whiteSpace=wrap;strokeWidth=2;" vertex="1" parent="1">
          <mxGeometry x="550" y="70" width="150" height="30" as="geometry" />
        </mxCell>
        <mxCell id="10" value="ConvertDataTypes" style="shape=umlLifeline;perimeter=lifelinePerimeter;whiteSpace=wrap;container=1;dropTarget=0;collapsible=0;recursiveResize=0;outlineConnect=0;portConstraint=eastwest;newEdgeStyle={&quot;edgeStyle&quot;:&quot;elbowEdgeStyle&quot;,&quot;elbow&quot;:&quot;vertical&quot;,&quot;curved&quot;:0,&quot;rounded&quot;:0};size=30;" vertex="1" parent="1">
          <mxGeometry x="750" y="110" width="150" height="300" as="geometry" />
        </mxCell>
        <mxCell id="11" value="" style="shape=image;imageAspect=0;aspect=fixed;image=https://cdn1.iconfinder.com/data/icons/hawcons/32/699721-icon-5-neutral-face-128.png;imageBackground=default;" vertex="1" parent="10">
          <mxGeometry x="60" y="NaN" width="30" height="30" as="geometry" />
        </mxCell>
        <mxCell id="12" value="EnrichData" style="shape=umlLifeline;perimeter=lifelinePerimeter;whiteSpace=wrap;container=1;dropTarget=0;collapsible=0;recursiveResize=0;outlineConnect=0;portConstraint=eastwest;newEdgeStyle={&quot;edgeStyle&quot;:&quot;elbowEdgeStyle&quot;,&quot;elbow&quot;:&quot;vertical&quot;,&quot;curved&quot;:0,&quot;rounded&quot;:0};size=30;" vertex="1" parent="1">
          <mxGeometry x="950" y="110" width="150" height="300" as="geometry" />
        </mxCell>
        <mxCell id="13" value="" style="shape=image;imageAspect=0;aspect=fixed;image=https://cdn1.iconfinder.com/data/icons/hawcons/32/699721-icon-5-neutral-face-128.png;imageBackground=default;" vertex="1" parent="12">
          <mxGeometry x="60" y="NaN" width="30" height="30" as="geometry" />
        </mxCell>
        <mxCell id="14" value="LoadDataWarehouse" style="shape=umlLifeline;perimeter=lifelinePerimeter;whiteSpace=wrap;container=1;dropTarget=0;collapsible=0;recursiveResize=0;outlineConnect=0;portConstraint=eastwest;newEdgeStyle={&quot;edgeStyle&quot;:&quot;elbowEdgeStyle&quot;,&quot;elbow&quot;:&quot;vertical&quot;,&quot;curved&quot;:0,&quot;rounded&quot;:0};size=30;" vertex="1" parent="1">
          <mxGeometry x="1150" y="110" width="150" height="300" as="geometry" />
        </mxCell>
        <mxCell id="15" value="" style="shape=image;imageAspect=0;aspect=fixed;image=https://cdn1.iconfinder.com/data/icons/hawcons/32/699721-icon-5-neutral-face-128.png;imageBackground=default;" vertex="1" parent="14">
          <mxGeometry x="60" y="NaN" width="30" height="30" as="geometry" />
        </mxCell>
        <mxCell id="16" value="Load" style="whiteSpace=wrap;strokeWidth=2;" vertex="1" parent="1">
          <mxGeometry x="1150" y="70" width="150" height="30" as="geometry" />
        </mxCell>
        <mxCell id="17" value="VerifyData" style="shape=umlLifeline;perimeter=lifelinePerimeter;whiteSpace=wrap;container=1;dropTarget=0;collapsible=0;recursiveResize=0;outlineConnect=0;portConstraint=eastwest;newEdgeStyle={&quot;edgeStyle&quot;:&quot;elbowEdgeStyle&quot;,&quot;elbow&quot;:&quot;vertical&quot;,&quot;curved&quot;:0,&quot;rounded&quot;:0};size=30;" vertex="1" parent="1">
          <mxGeometry x="1350" y="110" width="150" height="300" as="geometry" />
        </mxCell>
        <mxCell id="18" value="" style="shape=image;imageAspect=0;aspect=fixed;image=https://cdn1.iconfinder.com/data/icons/hawcons/32/699721-icon-5-neutral-face-128.png;imageBackground=default;" vertex="1" parent="17">
          <mxGeometry x="60" y="NaN" width="30" height="30" as="geometry" />
        </mxCell>
        <mxCell id="19" value="Verification" style="whiteSpace=wrap;strokeWidth=2;" vertex="1" parent="1">
          <mxGeometry x="1350" y="70" width="150" height="30" as="geometry" />
        </mxCell>
        <mxCell id="20" style="endArrow=block;strokeWidth=3;endFill=1;" edge="1" parent="1">
          <mxGeometry relative="1" as="geometry">
            <mxPoint x="150" y="190" as="sourcePoint" />
            <mxPoint x="1550" y="190" as="targetPoint" />
          </mxGeometry>
        </mxCell>
        <mxCell id="21" value="Data conversion from Electronic Health Record to a data warehouse" style="text;strokeColor=none;fillColor=none;align=left;verticalAlign=middle;fontSize=20;fontStyle=1" vertex="1" parent="1">
          <mxGeometry x="150" width="780" height="40" as="geometry" />
        </mxCell>
      </root>
    </mxGraphModel>
  </diagram>
</mxfile>
